<svg width="400" height="400" viewBox="0 0 160 160" xmlns="http://www.w3.org/2000/svg">
  <rect width="160" height="160" fill="#0A0912"/>
  <circle cx="30" cy="20" r="1" fill="#D4AF37"/>
  <circle cx="130" cy="35" r="0.8" fill="#D4AF37"/>
  <circle cx="40" cy="135" r="0.9" fill="#D4AF37"/>
  <circle cx="125" cy="130" r="1" fill="#D4AF37"/>
  <circle cx="100" cy="25" r="0.6" fill="#D4AF37"/>
  <circle cx="20" cy="100" r="0.7" fill="#D4AF37"/>
  <circle cx="80" cy="80" r="74" fill="none" stroke="#D4AF37" stroke-width="1.5"/>
  <circle cx="80" cy="80" r="64" fill="none" stroke="#D4AF37" stroke-width="1"/>
  <path d="M30 30 C30 16, 44 6, 58 6" stroke="#D4AF37" stroke-width="1.5" fill="none"/>
  <path d="M130 30 C130 16, 116 6, 102 6" stroke="#D4AF37" stroke-width="1.5" fill="none"/>
  <path d="M30 130 C30 144, 44 154, 58 154" stroke="#D4AF37" stroke-width="1.5" fill="none"/>
  <path d="M130 130 C130 144, 116 154, 102 154" stroke="#D4AF37" stroke-width="1.5" fill="none"/>
  <text x="80" y="100" text-anchor="middle" font-family="Georgia, serif" font-size="56" font-weight="700" fill="#D4AF37">33</text>
</svg>
